{
    "asset" : {
        "generator" : "Khronos glTF Blender I/O v1.3.48",
        "version" : "2.0"
    },
    "scene" : 0,
    "scenes" : [
        {
            "name" : "Scene",
            "nodes" : [
                0,
                1,
                2,
                3,
                4,
                5,
                6,
                7
            ]
        }
    ],
    "nodes" : [
        {
            "name" : "Light",
            "rotation" : [
                0.16907575726509094,
                0.7558803558349609,
                -0.27217137813568115,
                0.570947527885437
            ],
            "scale" : [
                362.2467956542969,
                362.2467956542969,
                362.2468566894531
            ],
            "translation" : [
                1691.3675537109375,
                2087.138671875,
                -406.2567138671875
            ]
        },
        {
            "name" : "Camera",
            "rotation" : [
                0.483536034822464,
                0.33687159419059753,
                -0.20870360732078552,
                0.7804827094078064
            ],
            "scale" : [
                362.246826171875,
                362.246826171875,
                362.246826171875
            ],
            "translation" : [
                2880.495849609375,
                1744.614990234375,
                2466.8115234375
            ]
        },
        {
            "name" : "Empty",
            "scale" : [
                362.246826171875,
                362.246826171875,
                362.246826171875
            ],
            "translation" : [
                386.811767578125,
                -51.516754150390625,
                -56.11802673339844
            ]
        },
        {
            "mesh" : 0,
            "name" : "Plane",
            "scale" : [
                93.98294067382812,
                93.98294067382812,
                93.98294067382812
            ],
            "translation" : [
                165.35012817382812,
                2.779266357421875,
                -143.96214294433594
            ]
        },
        {
            "mesh" : 1,
            "name" : "Plane.001",
            "scale" : [
                -5.495715141296387,
                -5.495715141296387,
                -5.495715141296387
            ],
            "translation" : [
                -176.93939208984375,
                4.347564697265625,
                -12.205123901367188
            ]
        },
        {
            "mesh" : 2,
            "name" : "Cube",
            "scale" : [
                -19.248029708862305,
                -2.907221794128418,
                -2.907221794128418
            ],
            "translation" : [
                -159.29351806640625,
                11.862945556640625,
                -63.44340515136719
            ]
        },
        {
            "mesh" : 3,
            "name" : "Cube.001",
            "scale" : [
                -19.248029708862305,
                -2.907221794128418,
                -2.907221794128418
            ],
            "translation" : [
                -159.29351806640625,
                11.862945556640625,
                -63.44340515136719
            ]
        },
        {
            "mesh" : 4,
            "name" : "Cube.002",
            "scale" : [
                -0.7610042691230774,
                -0.7610042691230774,
                -0.20386096835136414
            ],
            "translation" : [
                -139.50958251953125,
                9.6868896484375,
                -55.50703430175781
            ]
        }
    ],
    "materials" : [
        {
            "doubleSided" : true,
            "emissiveFactor" : [
                0,
                0,
                0
            ],
            "name" : "Material.001",
            "pbrMetallicRoughness" : {
                "baseColorTexture" : {
                    "index" : 0,
                    "texCoord" : 0
                },
                "metallicFactor" : 0,
                "roughnessFactor" : 0.5
            }
        },
        {
            "doubleSided" : true,
            "emissiveFactor" : [
                0,
                0,
                0
            ],
            "name" : "Material.002",
            "pbrMetallicRoughness" : {
                "baseColorFactor" : [
                    0,
                    0,
                    0,
                    1
                ],
                "metallicFactor" : 0,
                "roughnessFactor" : 0.5
            }
        },
        {
            "doubleSided" : true,
            "emissiveFactor" : [
                0,
                0,
                0
            ],
            "name" : "Material.003",
            "pbrMetallicRoughness" : {
                "baseColorFactor" : [
                    0.8000000715255737,
                    0,
                    0.019571596756577492,
                    1
                ],
                "metallicFactor" : 0,
                "roughnessFactor" : 0.5
            }
        },
        {
            "doubleSided" : true,
            "emissiveFactor" : [
                0,
                0,
                0
            ],
            "name" : "Material.004",
            "pbrMetallicRoughness" : {
                "baseColorFactor" : [
                    0,
                    0.046002935618162155,
                    0.8000000715255737,
                    1
                ],
                "metallicFactor" : 0,
                "roughnessFactor" : 0.5
            }
        },
        {
            "doubleSided" : true,
            "emissiveFactor" : [
                0,
                0,
                0
            ],
            "name" : "Material.005",
            "pbrMetallicRoughness" : {
                "baseColorTexture" : {
                    "index" : 1,
                    "texCoord" : 0
                },
                "metallicFactor" : 0,
                "roughnessFactor" : 0.5
            }
        }
    ],
    "meshes" : [
        {
            "name" : "Plane.001",
            "primitives" : [
                {
                    "attributes" : {
                        "POSITION" : 0,
                        "NORMAL" : 1,
                        "TEXCOORD_0" : 2
                    },
                    "indices" : 3,
                    "material" : 0
                }
            ]
        },
        {
            "name" : "Plane.002",
            "primitives" : [
                {
                    "attributes" : {
                        "POSITION" : 4,
                        "NORMAL" : 5,
                        "TEXCOORD_0" : 6
                    },
                    "indices" : 7,
                    "material" : 1
                }
            ]
        },
        {
            "name" : "Cube.001",
            "primitives" : [
                {
                    "attributes" : {
                        "POSITION" : 8,
                        "NORMAL" : 9,
                        "TEXCOORD_0" : 10
                    },
                    "indices" : 11,
                    "material" : 2
                }
            ]
        },
        {
            "name" : "Cube.002",
            "primitives" : [
                {
                    "attributes" : {
                        "POSITION" : 12,
                        "NORMAL" : 13,
                        "TEXCOORD_0" : 14
                    },
                    "indices" : 15,
                    "material" : 3
                }
            ]
        },
        {
            "name" : "Cube.003",
            "primitives" : [
                {
                    "attributes" : {
                        "POSITION" : 16,
                        "NORMAL" : 17,
                        "TEXCOORD_0" : 18
                    },
                    "indices" : 19,
                    "material" : 4
                }
            ]
        }
    ],
    "textures" : [
        {
            "source" : 0
        },
        {
            "source" : 1
        }
    ],
    "images" : [
        {
            "bufferView" : 4,
            "mimeType" : "image/png",
            "name" : "1"
        },
        {
            "bufferView" : 21,
            "mimeType" : "image/png",
            "name" : "3"
        }
    ],
    "accessors" : [
        {
            "bufferView" : 0,
            "componentType" : 5126,
            "count" : 533,
            "max" : [
                4.753883361816406,
                0.07349836826324463,
                4.4225568771362305
            ],
            "min" : [
                -6.923807144165039,
                0,
                -2.083857774734497
            ],
            "type" : "VEC3"
        },
        {
            "bufferView" : 1,
            "componentType" : 5126,
            "count" : 533,
            "type" : "VEC3"
        },
        {
            "bufferView" : 2,
            "componentType" : 5126,
            "count" : 533,
            "type" : "VEC2"
        },
        {
            "bufferView" : 3,
            "componentType" : 5123,
            "count" : 1788,
            "type" : "SCALAR"
        },
        {
            "bufferView" : 5,
            "componentType" : 5126,
            "count" : 1298,
            "max" : [
                23.85605239868164,
                0,
                42.28074645996094
            ],
            "min" : [
                -67.19686126708984,
                -1.0241386890411377,
                -30.697471618652344
            ],
            "type" : "VEC3"
        },
        {
            "bufferView" : 6,
            "componentType" : 5126,
            "count" : 1298,
            "type" : "VEC3"
        },
        {
            "bufferView" : 7,
            "componentType" : 5126,
            "count" : 1298,
            "type" : "VEC2"
        },
        {
            "bufferView" : 8,
            "componentType" : 5123,
            "count" : 2358,
            "type" : "SCALAR"
        },
        {
            "bufferView" : 9,
            "componentType" : 5126,
            "count" : 90,
            "max" : [
                5.345860958099365,
                1,
                1
            ],
            "min" : [
                -1,
                -1,
                -1
            ],
            "type" : "VEC3"
        },
        {
            "bufferView" : 10,
            "componentType" : 5126,
            "count" : 90,
            "type" : "VEC3"
        },
        {
            "bufferView" : 11,
            "componentType" : 5126,
            "count" : 90,
            "type" : "VEC2"
        },
        {
            "bufferView" : 12,
            "componentType" : 5123,
            "count" : 162,
            "type" : "SCALAR"
        },
        {
            "bufferView" : 13,
            "componentType" : 5126,
            "count" : 60,
            "max" : [
                2.780491352081299,
                1.0000001192092896,
                -20.572214126586914
            ],
            "min" : [
                -1.4936320781707764,
                -1.0000001192092896,
                -22.572214126586914
            ],
            "type" : "VEC3"
        },
        {
            "bufferView" : 14,
            "componentType" : 5126,
            "count" : 60,
            "type" : "VEC3"
        },
        {
            "bufferView" : 15,
            "componentType" : 5126,
            "count" : 60,
            "type" : "VEC2"
        },
        {
            "bufferView" : 16,
            "componentType" : 5123,
            "count" : 108,
            "type" : "SCALAR"
        },
        {
            "bufferView" : 17,
            "componentType" : 5126,
            "count" : 78,
            "max" : [
                1,
                1,
                -0.6211528778076172
            ],
            "min" : [
                -1,
                -4.479412078857422,
                -53.517730712890625
            ],
            "type" : "VEC3"
        },
        {
            "bufferView" : 18,
            "componentType" : 5126,
            "count" : 78,
            "type" : "VEC3"
        },
        {
            "bufferView" : 19,
            "componentType" : 5126,
            "count" : 78,
            "type" : "VEC2"
        },
        {
            "bufferView" : 20,
            "componentType" : 5123,
            "count" : 132,
            "type" : "SCALAR"
        }
    ],
    "bufferViews" : [
        {
            "buffer" : 0,
            "byteLength" : 6396,
            "byteOffset" : 0
        },
        {
            "buffer" : 0,
            "byteLength" : 6396,
            "byteOffset" : 6396
        },
        {
            "buffer" : 0,
            "byteLength" : 4264,
            "byteOffset" : 12792
        },
        {
            "buffer" : 0,
            "byteLength" : 3576,
            "byteOffset" : 17056
        },
        {
            "buffer" : 0,
            "byteLength" : 48900,
            "byteOffset" : 20632
        },
        {
            "buffer" : 0,
            "byteLength" : 15576,
            "byteOffset" : 69532
        },
        {
            "buffer" : 0,
            "byteLength" : 15576,
            "byteOffset" : 85108
        },
        {
            "buffer" : 0,
            "byteLength" : 10384,
            "byteOffset" : 100684
        },
        {
            "buffer" : 0,
            "byteLength" : 4716,
            "byteOffset" : 111068
        },
        {
            "buffer" : 0,
            "byteLength" : 1080,
            "byteOffset" : 115784
        },
        {
            "buffer" : 0,
            "byteLength" : 1080,
            "byteOffset" : 116864
        },
        {
            "buffer" : 0,
            "byteLength" : 720,
            "byteOffset" : 117944
        },
        {
            "buffer" : 0,
            "byteLength" : 324,
            "byteOffset" : 118664
        },
        {
            "buffer" : 0,
            "byteLength" : 720,
            "byteOffset" : 118988
        },
        {
            "buffer" : 0,
            "byteLength" : 720,
            "byteOffset" : 119708
        },
        {
            "buffer" : 0,
            "byteLength" : 480,
            "byteOffset" : 120428
        },
        {
            "buffer" : 0,
            "byteLength" : 216,
            "byteOffset" : 120908
        },
        {
            "buffer" : 0,
            "byteLength" : 936,
            "byteOffset" : 121124
        },
        {
            "buffer" : 0,
            "byteLength" : 936,
            "byteOffset" : 122060
        },
        {
            "buffer" : 0,
            "byteLength" : 624,
            "byteOffset" : 122996
        },
        {
            "buffer" : 0,
            "byteLength" : 264,
            "byteOffset" : 123620
        },
        {
            "buffer" : 0,
            "byteLength" : 45067,
            "byteOffset" : 123884
        }
    ],
    "buffers" : [
        {
            "byteLength" : 168952,
            "uri" : "data:application/octet-stream;base64,"
        }
    ]
}
