{
    "asset" : {
        "generator" : "Khronos glTF Blender I/O v1.3.48",
        "version" : "2.0"
    },
    "scene" : 0,
    "scenes" : [
        {
            "name" : "Scene",
            "nodes" : [
                0,
                1,
                2,
                3
            ]
        }
    ],
    "nodes" : [
        {
            "name" : "Light",
            "rotation" : [
                0.16907575726509094,
                0.7558803558349609,
                -0.27217137813568115,
                0.570947527885437
            ],
            "scale" : [
                4.473430156707764,
                4.473430633544922,
                4.47343111038208
            ],
            "translation" : [
                -3.400750160217285,
                16.97826385498047,
                -2.2699546813964844
            ]
        },
        {
            "name" : "Camera",
            "rotation" : [
                0.483536034822464,
                0.33687159419059753,
                -0.20870360732078552,
                0.7804827094078064
            ],
            "scale" : [
                4.47343111038208,
                4.473430633544922,
                4.473430633544922
            ],
            "translation" : [
                11.283939361572266,
                12.748401641845703,
                33.20991516113281
            ]
        },
        {
            "name" : "Empty",
            "scale" : [
                108.00983428955078,
                108.00983428955078,
                108.00983428955078
            ],
            "translation" : [
                38.6678581237793,
                -9.432250022888184,
                -35.73345184326172
            ]
        },
        {
            "mesh" : 0,
            "name" : "Plane",
            "scale" : [
                4.473430633544922,
                4.473430633544922,
                4.473430633544922
            ],
            "translation" : [
                -34.53853225708008,
                0.1417047083377838,
                -3.073211431503296
            ]
        }
    ],
    "materials" : [
        {
            "doubleSided" : true,
            "emissiveFactor" : [
                0,
                0,
                0
            ],
            "name" : "Material.001",
            "pbrMetallicRoughness" : {
                "baseColorFactor" : [
                    0,
                    0,
                    0,
                    1
                ],
                "metallicFactor" : 0,
                "roughnessFactor" : 0.5
            }
        }
    ],
    "meshes" : [
        {
            "name" : "Plane",
            "primitives" : [
                {
                    "attributes" : {
                        "POSITION" : 0,
                        "NORMAL" : 1,
                        "TEXCOORD_0" : 2
                    },
                    "indices" : 3,
                    "material" : 0
                }
            ]
        }
    ],
    "accessors" : [
        {
            "bufferView" : 0,
            "componentType" : 5126,
            "count" : 738,
            "max" : [
                53.976810455322266,
                0.03167831897735596,
                29.13770866394043
            ],
            "min" : [
                -39.69575119018555,
                -0.03167831897735596,
                -43.587318420410156
            ],
            "type" : "VEC3"
        },
        {
            "bufferView" : 1,
            "componentType" : 5126,
            "count" : 738,
            "type" : "VEC3"
        },
        {
            "bufferView" : 2,
            "componentType" : 5126,
            "count" : 738,
            "type" : "VEC2"
        },
        {
            "bufferView" : 3,
            "componentType" : 5123,
            "count" : 1380,
            "type" : "SCALAR"
        }
    ],
    "bufferViews" : [
        {
            "buffer" : 0,
            "byteLength" : 8856,
            "byteOffset" : 0
        },
        {
            "buffer" : 0,
            "byteLength" : 8856,
            "byteOffset" : 8856
        },
        {
            "buffer" : 0,
            "byteLength" : 5904,
            "byteOffset" : 17712
        },
        {
            "buffer" : 0,
            "byteLength" : 2760,
            "byteOffset" : 23616
        }
    ],
    "buffers" : [
        {
            "byteLength" : 26376,
            "uri" : "data:application/octet-stream;base64,"
        }
    ]
}
