{
    "asset" : {
        "generator" : "Khronos glTF Blender I/O v1.3.48",
        "version" : "2.0"
    },
    "scene" : 0,
    "scenes" : [
        {
            "name" : "Scene",
            "nodes" : [
                0,
                1,
                2,
                3,
                4,
                5
            ]
        }
    ],
    "nodes" : [
        {
            "name" : "GOOGLE_SAT_WM",
            "scale" : [
                8560.947265625,
                1,
                8560.947265625
            ],
            "translation" : [
                227.77825927734375,
                0,
                30.60955810546875
            ]
        },
        {
            "name" : "Light",
            "rotation" : [
                0.16907575726509094,
                0.7558803558349609,
                -0.27217137813568115,
                0.570947527885437
            ],
            "scale" : [
                4.473430156707764,
                4.473430633544922,
                4.47343111038208
            ],
            "translation" : [
                -1033815.8125,
                16.97826385498047,
                5719964
            ]
        },
        {
            "name" : "Camera",
            "rotation" : [
                0.483536034822464,
                0.33687159419059753,
                -0.20870360732078552,
                0.7804827094078064
            ],
            "scale" : [
                4.47343111038208,
                4.473430633544922,
                4.473430633544922
            ],
            "translation" : [
                -1033801.125,
                12.748401641845703,
                5719999.5
            ]
        },
        {
            "name" : "Empty",
            "scale" : [
                108.00983428955078,
                108.00983428955078,
                108.00983428955078
            ],
            "translation" : [
                -1033773.75,
                -9.432250022888184,
                5719930.5
            ]
        },
        {
            "mesh" : 0,
            "name" : "Plane",
            "scale" : [
                4.473430633544922,
                4.473430633544922,
                4.473430633544922
            ],
            "translation" : [
                -1033846.9375,
                0.1417047083377838,
                5719963.5
            ]
        },
        {
            "mesh" : 1,
            "name" : "Plane.001",
            "scale" : [
                4.497409343719482,
                4.497409343719482,
                4.497409343719482
            ],
            "translation" : [
                -217.55076599121094,
                171.98818969726562,
                296.79693603515625
            ]
        }
    ],
    "materials" : [
        {
            "doubleSided" : true,
            "emissiveFactor" : [
                0,
                0,
                0
            ],
            "name" : "Material.001",
            "pbrMetallicRoughness" : {
                "baseColorFactor" : [
                    0,
                    0,
                    0,
                    1
                ],
                "metallicFactor" : 0,
                "roughnessFactor" : 0.5
            }
        }
    ],
    "meshes" : [
        {
            "name" : "Plane",
            "primitives" : [
                {
                    "attributes" : {
                        "POSITION" : 0,
                        "NORMAL" : 1,
                        "TEXCOORD_0" : 2
                    },
                    "indices" : 3,
                    "material" : 0
                }
            ]
        },
        {
            "name" : "Plane.002",
            "primitives" : [
                {
                    "attributes" : {
                        "POSITION" : 4,
                        "NORMAL" : 5,
                        "TEXCOORD_0" : 6
                    },
                    "indices" : 7,
                    "material" : 0
                }
            ]
        }
    ],
    "accessors" : [
        {
            "bufferView" : 0,
            "componentType" : 5126,
            "count" : 738,
            "max" : [
                53.976810455322266,
                0.03167831897735596,
                29.13770866394043
            ],
            "min" : [
                -39.69575119018555,
                -0.03167831897735596,
                -43.587318420410156
            ],
            "type" : "VEC3"
        },
        {
            "bufferView" : 1,
            "componentType" : 5126,
            "count" : 738,
            "type" : "VEC3"
        },
        {
            "bufferView" : 2,
            "componentType" : 5126,
            "count" : 738,
            "type" : "VEC2"
        },
        {
            "bufferView" : 3,
            "componentType" : 5123,
            "count" : 1380,
            "type" : "SCALAR"
        },
        {
            "bufferView" : 4,
            "componentType" : 5126,
            "count" : 740,
            "max" : [
                266.2428894042969,
                2.474609851837158,
                250.9880828857422
            ],
            "min" : [
                -89.60411071777344,
                0,
                -354.8215637207031
            ],
            "type" : "VEC3"
        },
        {
            "bufferView" : 5,
            "componentType" : 5126,
            "count" : 740,
            "type" : "VEC3"
        },
        {
            "bufferView" : 6,
            "componentType" : 5126,
            "count" : 740,
            "type" : "VEC2"
        },
        {
            "bufferView" : 7,
            "componentType" : 5123,
            "count" : 1176,
            "type" : "SCALAR"
        }
    ],
    "bufferViews" : [
        {
            "buffer" : 0,
            "byteLength" : 8856,
            "byteOffset" : 0
        },
        {
            "buffer" : 0,
            "byteLength" : 8856,
            "byteOffset" : 8856
        },
        {
            "buffer" : 0,
            "byteLength" : 5904,
            "byteOffset" : 17712
        },
        {
            "buffer" : 0,
            "byteLength" : 2760,
            "byteOffset" : 23616
        },
        {
            "buffer" : 0,
            "byteLength" : 8880,
            "byteOffset" : 26376
        },
        {
            "buffer" : 0,
            "byteLength" : 8880,
            "byteOffset" : 35256
        },
        {
            "buffer" : 0,
            "byteLength" : 5920,
            "byteOffset" : 44136
        },
        {
            "buffer" : 0,
            "byteLength" : 2352,
            "byteOffset" : 50056
        }
    ],
    "buffers" : [
        {
            "byteLength" : 52408,
            "uri" : "data:application/octet-stream;base64,"
        }
    ]
}
